<svg width="40" height="40" viewBox="0 0 40 40" fill="none" xmlns="http://www.w3.org/2000/svg">
<path d="M26.665 14.1673H29.9983C29.9983 9.43898 25.4066 7.28232 21.665 6.78565V3.33398H18.3316V6.78565C14.59 7.28232 9.99829 9.43898 9.99829 14.1673C9.99829 18.6773 14.4416 21.0223 18.3316 21.5507V29.834C15.9183 29.4156 13.3316 28.1273 13.3316 25.834H9.99829C9.99829 30.149 14.04 32.699 18.3316 33.2273V36.6673H21.665V33.2173C25.4066 32.7207 29.9983 30.5623 29.9983 25.834C29.9983 21.1056 25.4066 18.949 21.665 18.4523V10.1673C23.8816 10.5657 26.665 11.7357 26.665 14.1673ZM13.3316 14.1673C13.3316 11.7357 16.115 10.5657 18.3316 10.1673V18.1657C16.0466 17.744 13.3316 16.4957 13.3316 14.1673ZM26.665 25.834C26.665 28.2656 23.8816 29.4356 21.665 29.834V21.834C23.8816 22.2323 26.665 23.4023 26.665 25.834Z" fill="#FFB700"/>
</svg>
