<svg width="33" height="33" viewBox="0 0 33 33" fill="none" xmlns="http://www.w3.org/2000/svg">
<rect y="0.180664" width="32.6387" height="32.6387" rx="2" fill="#F4A618"/>
<g clip-path="url(#clip0_70_17)">
<path d="M16.1728 16.1237C17.534 16.1237 18.7126 15.6354 19.6759 14.6722C20.6389 13.709 21.1273 12.5306 21.1273 11.1692C21.1273 9.80822 20.639 8.62962 19.6758 7.66619C18.7125 6.70323 17.5339 6.215 16.1728 6.215C14.8113 6.215 13.6329 6.70323 12.6698 7.66635C11.7067 8.62947 11.2183 9.80806 11.2183 11.1692C11.2183 12.5306 11.7067 13.7092 12.6698 14.6723C13.6332 15.6353 14.8118 16.1237 16.1728 16.1237ZM13.5223 8.51867C14.2613 7.77965 15.1282 7.42043 16.1728 7.42043C17.2172 7.42043 18.0843 7.77965 18.8234 8.51867C19.5624 9.25784 19.9218 10.1249 19.9218 11.1692C19.9218 12.2137 19.5624 13.0807 18.8234 13.8198C18.0843 14.559 17.2172 14.9182 16.1728 14.9182C15.1285 14.9182 14.2616 14.5588 13.5223 13.8198C12.7831 13.0808 12.4237 12.2137 12.4237 11.1692C12.4237 10.1249 12.7831 9.25784 13.5223 8.51867Z" fill="black"/>
<path d="M24.8418 22.0323C24.814 21.6315 24.7578 21.1943 24.6751 20.7326C24.5916 20.2674 24.4841 19.8277 24.3554 19.4258C24.2224 19.0104 24.0417 18.6001 23.8181 18.207C23.5863 17.799 23.3139 17.4437 23.0081 17.1513C22.6885 16.8454 22.2971 16.5995 21.8445 16.4201C21.3934 16.2417 20.8936 16.1513 20.3589 16.1513C20.1489 16.1513 19.9458 16.2374 19.5537 16.4928C19.3123 16.6502 19.03 16.8322 18.7148 17.0336C18.4454 17.2053 18.0803 17.3661 17.6295 17.5118C17.1896 17.6541 16.7429 17.7263 16.3019 17.7263C15.8613 17.7263 15.4146 17.6541 14.9744 17.5118C14.524 17.3663 14.1588 17.2054 13.8898 17.0337C13.5777 16.8343 13.2952 16.6522 13.0502 16.4926C12.6583 16.2373 12.4553 16.1511 12.2453 16.1511C11.7104 16.1511 11.2107 16.2417 10.7599 16.4203C10.3076 16.5993 9.91602 16.8453 9.59603 17.1514C9.29031 17.444 9.01787 17.7991 8.78623 18.207C8.56291 18.6001 8.38212 19.0102 8.24904 19.4259C8.12051 19.8278 8.01301 20.2674 7.92952 20.7326C7.84665 21.1937 7.79063 21.631 7.76285 22.0328C7.73554 22.4256 7.72173 22.8344 7.72173 23.2475C7.72173 24.3212 8.06307 25.1905 8.73617 25.8316C9.40096 26.4642 10.2804 26.785 11.3503 26.785H21.2549C22.3244 26.785 23.2038 26.4642 23.8688 25.8316C24.542 25.191 24.8834 24.3214 24.8834 23.2473C24.8832 22.8329 24.8693 22.424 24.8418 22.0323ZM23.0377 24.9583C22.5984 25.3763 22.0152 25.5796 21.2547 25.5796H11.3503C10.5896 25.5796 10.0064 25.3763 9.56731 24.9584C9.13652 24.5483 8.92716 23.9885 8.92716 23.2475C8.92716 22.862 8.93988 22.4815 8.9653 22.1161C8.9901 21.7577 9.04079 21.3639 9.11596 20.9455C9.19019 20.5323 9.28467 20.1445 9.39703 19.7935C9.50485 19.4568 9.6519 19.1235 9.83426 18.8024C10.0083 18.4964 10.2086 18.2338 10.4295 18.0223C10.6362 17.8244 10.8967 17.6624 11.2037 17.541C11.4876 17.4286 11.8066 17.3671 12.153 17.3578C12.1952 17.3803 12.2704 17.4231 12.3922 17.5025C12.64 17.664 12.9256 17.8482 13.2414 18.0499C13.5973 18.2768 14.0559 18.4818 14.6037 18.6587C15.1638 18.8398 15.7351 18.9317 16.3021 18.9317C16.8691 18.9317 17.4405 18.8398 18.0003 18.6588C18.5486 18.4816 19.007 18.2768 19.3635 18.0496C19.6866 17.8431 19.9642 17.6641 20.212 17.5025C20.3338 17.4233 20.409 17.3803 20.4512 17.3578C20.7977 17.3671 21.1167 17.4286 21.4008 17.541C21.7076 17.6624 21.9681 17.8245 22.1748 18.0223C22.3958 18.2337 22.596 18.4962 22.7701 18.8026C22.9526 19.1235 23.0998 19.457 23.2075 19.7933C23.32 20.1448 23.4146 20.5325 23.4887 20.9454C23.5637 21.3646 23.6145 21.7585 23.6393 22.1163V22.1166C23.6649 22.4805 23.6778 22.8609 23.678 23.2475C23.6778 23.9887 23.4684 24.5483 23.0377 24.9583Z" fill="black"/>
</g>
<defs>
<clipPath id="clip0_70_17">
<rect width="20.57" height="20.57" fill="white" transform="translate(6.03435 6.215)"/>
</clipPath>
</defs>
</svg>
