<svg width="20" height="34" viewBox="0 0 20 34" fill="none" xmlns="http://www.w3.org/2000/svg">
<path d="M16.665 11.1673H19.9983C19.9983 6.43898 15.4066 4.28232 11.665 3.78565V0.333984H8.33162V3.78565C4.58996 4.28232 -0.00170898 6.43898 -0.00170898 11.1673C-0.00170898 15.6773 4.44162 18.0223 8.33162 18.5507V26.834C5.91829 26.4156 3.33162 25.1273 3.33162 22.834H-0.00170898C-0.00170898 27.149 4.03996 29.699 8.33162 30.2273V33.6673H11.665V30.2173C15.4066 29.7207 19.9983 27.5623 19.9983 22.834C19.9983 18.1056 15.4066 15.949 11.665 15.4523V7.16732C13.8816 7.56565 16.665 8.73565 16.665 11.1673ZM3.33162 11.1673C3.33162 8.73565 6.11496 7.56565 8.33162 7.16732V15.1657C6.04662 14.744 3.33162 13.4957 3.33162 11.1673ZM16.665 22.834C16.665 25.2656 13.8816 26.4356 11.665 26.834V18.834C13.8816 19.2323 16.665 20.4023 16.665 22.834Z" fill="#FFB700"/>
</svg>
