<svg width="17" height="17" viewBox="0 0 17 17" fill="none" xmlns="http://www.w3.org/2000/svg">
<circle cx="8.5" cy="8.5" r="8.5" fill="#10F2B0"/>
<path d="M12.3571 9.14286H9.14286V12.3571C9.14286 12.5276 9.07513 12.6912 8.95457 12.8117C8.83401 12.9323 8.6705 13 8.5 13C8.3295 13 8.16599 12.9323 8.04543 12.8117C7.92487 12.6912 7.85714 12.5276 7.85714 12.3571V9.14286H4.64286C4.47236 9.14286 4.30885 9.07513 4.18829 8.95457C4.06773 8.83401 4 8.6705 4 8.5C4 8.3295 4.06773 8.16599 4.18829 8.04543C4.30885 7.92487 4.47236 7.85714 4.64286 7.85714H7.85714V4.64286C7.85714 4.47236 7.92487 4.30885 8.04543 4.18829C8.16599 4.06773 8.3295 4 8.5 4C8.6705 4 8.83401 4.06773 8.95457 4.18829C9.07513 4.30885 9.14286 4.47236 9.14286 4.64286V7.85714H12.3571C12.5276 7.85714 12.6912 7.92487 12.8117 8.04543C12.9323 8.16599 13 8.3295 13 8.5C13 8.6705 12.9323 8.83401 12.8117 8.95457C12.6912 9.07513 12.5276 9.14286 12.3571 9.14286Z" fill="black"/>
</svg>
