<svg width="33" height="33" viewBox="0 0 33 33" fill="none" xmlns="http://www.w3.org/2000/svg">
<rect y="0.180664" width="32.6387" height="32.6387" rx="2" fill="#D9D9D9" fill-opacity="0.1"/>
<g clip-path="url(#clip0_70_41)">
<path d="M20.6048 18.2142C20.6048 18.4415 20.5145 18.6595 20.3537 18.8203C20.193 18.981 19.975 19.0713 19.7477 19.0713H12.891C12.6637 19.0713 12.4457 18.981 12.285 18.8203C12.1242 18.6595 12.0339 18.4415 12.0339 18.2142C12.0339 17.9869 12.1242 17.7689 12.285 17.6082C12.4457 17.4474 12.6637 17.3571 12.891 17.3571H19.7477C19.975 17.3571 20.193 17.4474 20.3537 17.6082C20.5145 17.7689 20.6048 17.9869 20.6048 18.2142ZM17.1764 20.7855H12.891C12.6637 20.7855 12.4457 20.8758 12.285 21.0365C12.1242 21.1972 12.0339 21.4152 12.0339 21.6425C12.0339 21.8699 12.1242 22.0879 12.285 22.2486C12.4457 22.4093 12.6637 22.4996 12.891 22.4996H17.1764C17.4037 22.4996 17.6217 22.4093 17.7825 22.2486C17.9432 22.0879 18.0335 21.8699 18.0335 21.6425C18.0335 21.4152 17.9432 21.1972 17.7825 21.0365C17.6217 20.8758 17.4037 20.7855 17.1764 20.7855ZM24.8902 15.2016V22.4996C24.8888 23.6358 24.4369 24.725 23.6335 25.5284C22.8301 26.3318 21.7409 26.7837 20.6048 26.785H12.0339C10.8978 26.7837 9.80857 26.3318 9.00519 25.5284C8.20181 24.725 7.74988 23.6358 7.74852 22.4996V10.5005C7.74988 9.36432 8.20181 8.2751 9.00519 7.47172C9.80857 6.66834 10.8978 6.21641 12.0339 6.21505H15.9037C16.6919 6.21302 17.4726 6.36725 18.2008 6.66884C18.9291 6.97042 19.5903 7.41337 20.1462 7.97207L23.1323 10.9599C23.6913 11.5155 24.1345 12.1765 24.4363 12.9046C24.738 13.6327 24.8923 14.4134 24.8902 15.2016ZM18.9343 9.18398C18.6646 8.92271 18.3617 8.69795 18.0335 8.51546V12.2146C18.0335 12.4419 18.1238 12.6599 18.2845 12.8207C18.4453 12.9814 18.6633 13.0717 18.8906 13.0717H22.5898C22.4072 12.7436 22.1821 12.441 21.9204 12.1718L18.9343 9.18398ZM23.176 15.2016C23.176 15.0601 23.1486 14.9247 23.1357 14.7859H18.8906C18.2087 14.7859 17.5547 14.515 17.0725 14.0328C16.5902 13.5506 16.3193 12.8966 16.3193 12.2146V7.9695C16.1805 7.95664 16.0442 7.92921 15.9037 7.92921H12.0339C11.352 7.92921 10.698 8.20011 10.2158 8.68232C9.73358 9.16452 9.46268 9.81853 9.46268 10.5005V22.4996C9.46268 23.1816 9.73358 23.8356 10.2158 24.3178C10.698 24.8 11.352 25.0709 12.0339 25.0709H20.6048C21.2867 25.0709 21.9407 24.8 22.4229 24.3178C22.9051 23.8356 23.176 23.1816 23.176 22.4996V15.2016Z" fill="white"/>
</g>
<defs>
<clipPath id="clip0_70_41">
<rect width="20.57" height="20.57" fill="white" transform="translate(6.03435 6.21503)"/>
</clipPath>
</defs>
</svg>
