<svg width="21" height="21" viewBox="0 0 21 21" fill="none" xmlns="http://www.w3.org/2000/svg">
<g clip-path="url(#clip0_70_204)">
<path d="M10.1728 10.1237C11.534 10.1237 12.7126 9.63543 13.6759 8.67216C14.6389 7.70904 15.1272 6.5306 15.1272 5.16917C15.1272 3.80822 14.639 2.62962 13.6757 1.66619C12.7125 0.703226 11.5339 0.214996 10.1728 0.214996C8.81133 0.214996 7.63289 0.703226 6.66977 1.66635C5.70665 2.62947 5.21826 3.80806 5.21826 5.16917C5.21826 6.5306 5.70665 7.70919 6.66977 8.67231C7.6332 9.63528 8.8118 10.1237 10.1728 10.1237ZM7.52225 2.51867C8.26126 1.77965 9.12818 1.42043 10.1728 1.42043C11.2172 1.42043 12.0842 1.77965 12.8234 2.51867C13.5624 3.25784 13.9218 4.12492 13.9218 5.16917C13.9218 6.21374 13.5624 7.08066 12.8234 7.81983C12.0842 8.559 11.2172 8.91823 10.1728 8.91823C9.1285 8.91823 8.26158 8.55885 7.52225 7.81983C6.78308 7.08082 6.42369 6.21374 6.42369 5.16917C6.42369 4.12492 6.78308 3.25784 7.52225 2.51867Z" fill="white"/>
<path d="M18.8417 16.0323C18.814 15.6315 18.7578 15.1943 18.6751 14.7326C18.5916 14.2674 18.4841 13.8277 18.3554 13.4258C18.2223 13.0104 18.0417 12.6001 17.818 12.207C17.5862 11.799 17.3138 11.4437 17.0081 11.1513C16.6884 10.8454 16.297 10.5995 15.8444 10.4201C15.3934 10.2417 14.8935 10.1513 14.3588 10.1513C14.1489 10.1513 13.9458 10.2374 13.5536 10.4928C13.3122 10.6502 13.0299 10.8322 12.7148 11.0336C12.4453 11.2053 12.0803 11.3661 11.6294 11.5118C11.1895 11.6541 10.7429 11.7263 10.3019 11.7263C9.8612 11.7263 9.41456 11.6541 8.97435 11.5118C8.52394 11.3663 8.15875 11.2054 7.88976 11.0337C7.57761 10.8343 7.29513 10.6522 7.05015 10.4926C6.65828 10.2373 6.4552 10.1511 6.24522 10.1511C5.71038 10.1511 5.2107 10.2417 4.75982 10.4203C4.30752 10.5993 3.91597 10.8453 3.59597 11.1514C3.29026 11.444 3.01782 11.7991 2.78618 12.207C2.56286 12.6001 2.38207 13.0102 2.24899 13.4259C2.12046 13.8278 2.01295 14.2674 1.92946 14.7326C1.8466 15.1937 1.79057 15.631 1.7628 16.0328C1.73549 16.4256 1.72168 16.8344 1.72168 17.2475C1.72168 18.3212 2.06302 19.1905 2.73612 19.8316C3.4009 20.4642 4.28037 20.785 5.35021 20.785H15.2548C16.3243 20.785 17.2038 20.4642 17.8687 19.8316C18.542 19.191 18.8833 18.3214 18.8833 17.2473C18.8832 16.8329 18.8692 16.424 18.8417 16.0323ZM17.0376 18.9583C16.5983 19.3763 16.0152 19.5796 15.2546 19.5796H5.35021C4.58954 19.5796 4.00636 19.3763 3.56725 18.9584C3.13646 18.5483 2.92711 17.9885 2.92711 17.2475C2.92711 16.862 2.93982 16.4815 2.96525 16.1161C2.99004 15.7577 3.04073 15.3639 3.1159 14.9455C3.19014 14.5323 3.28461 14.1445 3.39698 13.7935C3.50479 13.4568 3.65184 13.1235 3.8342 12.8024C4.00825 12.4964 4.2085 12.2338 4.42946 12.0223C4.63615 11.8244 4.89666 11.6624 5.20363 11.541C5.48753 11.4286 5.80658 11.3671 6.15294 11.3578C6.19516 11.3803 6.27033 11.4231 6.39211 11.5025C6.63992 11.664 6.92554 11.8482 7.2413 12.0499C7.59723 12.2768 8.0558 12.4818 8.60367 12.6587C9.16377 12.8398 9.73502 12.9317 10.302 12.9317C10.869 12.9317 11.4405 12.8398 12.0002 12.6588C12.5486 12.4816 13.007 12.2768 13.3634 12.0496C13.6865 11.8431 13.9642 11.6641 14.212 11.5025C14.3337 11.4233 14.4089 11.3803 14.4511 11.3578C14.7976 11.3671 15.1167 11.4286 15.4007 11.541C15.7076 11.6624 15.9681 11.8245 16.1748 12.0223C16.3957 12.2337 16.596 12.4962 16.77 12.8026C16.9525 13.1235 17.0997 13.457 17.2074 13.7933C17.3199 14.1448 17.4146 14.5325 17.4886 14.9454C17.5636 15.3646 17.6145 15.7585 17.6393 16.1163V16.1166C17.6649 16.4805 17.6777 16.8609 17.6779 17.2475C17.6777 17.9887 17.4684 18.5483 17.0376 18.9583Z" fill="white"/>
</g>
<defs>
<clipPath id="clip0_70_204">
<rect width="20.57" height="20.57" fill="white" transform="translate(0.0341797 0.214996)"/>
</clipPath>
</defs>
</svg>
