<svg width="33" height="33" viewBox="0 0 33 33" fill="none" xmlns="http://www.w3.org/2000/svg">
<rect y="0.180664" width="32.6387" height="32.6387" rx="2" fill="#D9D9D9" fill-opacity="0.1"/>
<g clip-path="url(#clip0_70_34)">
<path d="M16.7221 11.9149L17.5621 12.0863L15.8479 20.6571L15.0079 20.4857L16.7221 11.9149ZM13.9966 14.1947L13.3881 13.5862L11.511 15.4632C11.0139 15.9603 11.0139 16.7659 11.511 17.2631L13.3623 19.1144L13.9709 18.5058L12.1196 16.6545C11.9567 16.4917 11.9567 16.226 12.1196 16.0631L13.9966 14.1861V14.1947ZM19.1991 13.5519L18.5906 14.1604L20.459 16.0289C20.6218 16.1917 20.6218 16.4574 20.459 16.6202L18.5906 18.4887L19.1991 19.0972L21.0675 17.2288C21.5646 16.7317 21.5646 15.926 21.0675 15.4289L19.1991 13.5605V13.5519ZM23.8188 17.9144L26.39 19.5L23.6902 23.8797L21.119 22.2941C20.4333 22.8512 19.6791 23.2712 18.8563 23.5626V26.571H13.7138V23.5626C12.8995 23.2712 12.1367 22.8512 11.4511 22.2941L8.8798 23.8797L6.17999 19.5L8.75124 17.9144C8.63125 17.3659 8.57125 16.8174 8.57125 16.286C8.57125 15.7546 8.63125 15.2061 8.75124 14.6575L6.17999 13.0719L8.8798 8.69222L11.4511 10.2778C12.1367 9.72072 12.891 9.30075 13.7138 9.00934V6.00098H18.8563V9.00934C19.6705 9.30075 20.4333 9.72072 21.119 10.2778L23.6902 8.69222L26.39 13.0719L23.8188 14.6575C23.9388 15.2061 23.9988 15.7546 23.9988 16.286C23.9988 16.8174 23.9388 17.3659 23.8188 17.9144ZM22.8331 18.3173L22.9103 18.0087C23.0645 17.4259 23.1417 16.8517 23.1417 16.286C23.1417 15.7203 23.0645 15.1461 22.9103 14.5632L22.8331 14.2547L25.2072 12.7891L23.4074 9.87499L21.0332 11.3406L20.7933 11.1349C20.0562 10.4921 19.2162 10.0207 18.2991 9.73786L17.9992 9.64358V6.85806H14.5708V9.63501L14.2709 9.72929C13.3538 10.0121 12.5138 10.4835 11.7767 11.1263L11.5368 11.332L9.16264 9.86642L7.36276 12.7891L9.73688 14.2547L9.65975 14.5632C9.50547 15.1461 9.42833 15.7203 9.42833 16.286C9.42833 16.8517 9.50547 17.4259 9.65975 18.0087L9.73688 18.3173L7.36276 19.7829L9.16264 22.697L11.5368 21.2313L11.7767 21.437C12.5138 22.0799 13.3538 22.5513 14.2709 22.8341L14.5708 22.9284V25.7053H17.9992V22.9284L18.2991 22.8341C19.2162 22.5513 20.0562 22.0799 20.7933 21.437L21.0332 21.2313L23.4074 22.697L25.2072 19.7829L22.8331 18.3173Z" fill="white"/>
</g>
<defs>
<clipPath id="clip0_70_34">
<rect width="20.57" height="20.57" fill="white" transform="translate(6 6.00098)"/>
</clipPath>
</defs>
</svg>
