<svg width="33" height="33" viewBox="0 0 33 33" fill="none" xmlns="http://www.w3.org/2000/svg">
<rect y="0.180664" width="32.6387" height="32.6387" rx="2" fill="#D9D9D9" fill-opacity="0.1"/>
<g clip-path="url(#clip0_70_25)">
<path d="M19.7133 6.21503H12.8567C11.7205 6.21639 10.6313 6.66832 9.82792 7.4717C9.02455 8.27508 8.57261 9.3643 8.57125 10.5004V25.9279C8.57137 26.0838 8.61401 26.2367 8.69457 26.3702C8.77513 26.5037 8.89057 26.6126 9.02845 26.6854C9.16634 26.7581 9.32145 26.7918 9.47709 26.783C9.63272 26.7741 9.783 26.723 9.91173 26.635L11.7167 25.4017L13.5218 26.635C13.6644 26.7327 13.8332 26.7849 14.006 26.7849C14.1789 26.7849 14.3477 26.7327 14.4903 26.635L16.2901 25.4017L18.09 26.635C18.2327 26.7329 18.4017 26.7852 18.5747 26.7852C18.7477 26.7852 18.9167 26.7329 19.0594 26.635L20.8593 25.4025L22.6591 26.6342C22.7878 26.7218 22.9379 26.7728 23.0933 26.7816C23.2488 26.7903 23.4037 26.7566 23.5414 26.684C23.6791 26.6114 23.7944 26.5027 23.875 26.3695C23.9556 26.2363 23.9984 26.0836 23.9988 25.9279V10.5004C23.9974 9.3643 23.5455 8.27508 22.7421 7.4717C21.9387 6.66832 20.8495 6.21639 19.7133 6.21503ZM22.2846 24.2995L21.3418 23.655C21.199 23.5569 21.0299 23.5045 20.8567 23.5045C20.6835 23.5045 20.5144 23.5569 20.3716 23.655L18.5717 24.8883L16.7718 23.655C16.6291 23.5571 16.4602 23.5048 16.2871 23.5048C16.1141 23.5048 15.9452 23.5571 15.8025 23.655L14.0026 24.8883L12.2027 23.655C12.0602 23.5575 11.8916 23.5053 11.7189 23.5053C11.5462 23.5053 11.3776 23.5575 11.2351 23.655L10.2854 24.2995V10.5004C10.2854 9.81851 10.5563 9.1645 11.0385 8.6823C11.5207 8.20009 12.1747 7.92919 12.8567 7.92919H19.7133C20.3953 7.92919 21.0493 8.20009 21.5315 8.6823C22.0137 9.1645 22.2846 9.81851 22.2846 10.5004V24.2995Z" fill="white"/>
<path d="M19.7133 13.0717H12.8567C12.3833 13.0717 11.9996 13.4554 11.9996 13.9288C11.9996 14.4021 12.3833 14.7859 12.8567 14.7859H19.7133C20.1867 14.7859 20.5704 14.4021 20.5704 13.9288C20.5704 13.4554 20.1867 13.0717 19.7133 13.0717Z" fill="white"/>
<path d="M17.9992 16.5H12.8567C12.3833 16.5 11.9996 16.8838 11.9996 17.3571C11.9996 17.8305 12.3833 18.2142 12.8567 18.2142H17.9992C18.4725 18.2142 18.8563 17.8305 18.8563 17.3571C18.8563 16.8838 18.4725 16.5 17.9992 16.5Z" fill="white"/>
</g>
<defs>
<clipPath id="clip0_70_25">
<rect width="20.57" height="20.57" fill="white" transform="translate(6 6.21503)"/>
</clipPath>
</defs>
</svg>
