<svg width="13" height="12" viewBox="0 0 13 12" fill="none" xmlns="http://www.w3.org/2000/svg">
<path d="M7.71506 9.40957C7.62006 9.40957 7.52506 9.37457 7.45006 9.29957C7.30506 9.15457 7.30506 8.91457 7.45006 8.76957L10.2201 5.99957L7.45006 3.22957C7.30506 3.08457 7.30506 2.84457 7.45006 2.69957C7.59506 2.55457 7.83506 2.55457 7.98006 2.69957L11.0151 5.73457C11.1601 5.87957 11.1601 6.11957 11.0151 6.26457L7.98006 9.29957C7.90506 9.37457 7.81006 9.40957 7.71506 9.40957Z" fill="white"/>
<path d="M10.665 6.375H2.25C2.045 6.375 1.875 6.205 1.875 6C1.875 5.795 2.045 5.625 2.25 5.625H10.665C10.87 5.625 11.04 5.795 11.04 6C11.04 6.205 10.87 6.375 10.665 6.375Z" fill="white"/>
</svg>
